<svg xmlns="http://www.w3.org/2000/svg" width="576" height="480">
    <style>line, path, circle,rect,polygon {
                          stroke: black;
                          stroke-width: 2;
                          stroke-opacity: 1;
                          fill-opacity: 1;
                          stroke-linecap: round;
                          stroke-linejoin: miter;
                        }

                    text {
                        fill: black;
                        }
                        rect.backdrop{
                            stroke: none;
                            fill: white;
                        }
                        .broken{
                            stroke-dasharray: 8;
                        }
                        .filled{
                            fill: black;
                        }
                        .bg_filled{
                            fill: white;
                        }
                        .nofill{
                            fill: white;
                        }

                        text {
                         font-family: monospace;
                         font-size: 14px;
                        }

                        .end_marked_arrow{
                            marker-end: url(#arrow);
                         }
                        .start_marked_arrow{
                            marker-start: url(#arrow);
                         }

                        .end_marked_diamond{
                            marker-end: url(#diamond);
                         }
                        .start_marked_diamond{
                            marker-start: url(#diamond);
                         }

                        .end_marked_circle{
                            marker-end: url(#circle);
                         }
                        .start_marked_circle{
                            marker-start: url(#circle);
                         }

                        .end_marked_open_circle{
                            marker-end: url(#open_circle);
                         }
                        .start_marked_open_circle{
                            marker-start: url(#open_circle);
                         }

                        .end_marked_big_open_circle{
                            marker-end: url(#big_open_circle);
                         }
                        .start_marked_big_open_circle{
                            marker-start: url(#big_open_circle);
                         }

                         
                        </style>
    <defs>
        <marker id="arrow" viewBox="-2 -2 8 8" refX="4" refY="2" markerWidth="7" markerHeight="7" orient="auto-start-reverse">
            <polygon points="0,0 0,4 4,2 0,0"></polygon>
        </marker>
        <marker id="diamond" viewBox="-2 -2 8 8" refX="4" refY="2" markerWidth="7" markerHeight="7" orient="auto-start-reverse">
            <polygon points="0,2 2,0 4,2 2,4 0,2"></polygon>
        </marker>
        <marker id="circle" viewBox="0 0 8 8" refX="4" refY="4" markerWidth="7" markerHeight="7" orient="auto-start-reverse">
            <circle cx="4" cy="4" r="2" class="filled"></circle>
        </marker>
        <marker id="open_circle" viewBox="0 0 8 8" refX="4" refY="4" markerWidth="7" markerHeight="7" orient="auto-start-reverse">
            <circle cx="4" cy="4" r="2" class="bg_filled"></circle>
        </marker>
        <marker id="big_open_circle" viewBox="0 0 8 8" refX="4" refY="4" markerWidth="7" markerHeight="7" orient="auto-start-reverse">
            <circle cx="4" cy="4" r="3" class="bg_filled"></circle>
        </marker>
    </defs>
    <rect class="backdrop" x="0" y="0" width="576" height="480"></rect>
    <circle cx="112" cy="64" r="52" class="nofill"></circle>
    <circle cx="320" cy="64" r="52" class="nofill"></circle>
    <line x1="352" y1="72" x2="360" y2="72" class="solid"></line>
    <line x1="336" y1="72" x2="344" y2="72" class="solid"></line>
    <circle cx="496" cy="64" r="52" class="nofill"></circle>
    <polygon points="504,68 496,72 504,76" class="filled"></polygon>
    <text x="482" y="76" class="">.</text>
    <text x="98" y="140" class="">Time</text>
    <text x="10" y="156" class="">Beneficiary</text>
    <text x="98" y="172" class="">Coagent</text>
    <line x1="120" y1="198" x2="128" y2="198" class="solid"></line>
    <line x1="120" y1="202" x2="128" y2="202" class="solid"></line>
    <line x1="128" y1="200" x2="136" y2="200" class="broken"></line>
    <line x1="136" y1="198" x2="144" y2="198" class="solid"></line>
    <line x1="136" y1="202" x2="144" y2="202" class="solid"></line>
    <line x1="128" y1="214" x2="136" y2="214" class="solid"></line>
    <line x1="128" y1="218" x2="136" y2="218" class="solid"></line>
    <text x="290" y="140" class="">Duration</text>
    <text x="458" y="140" class="">Location</text>
    <text x="194" y="188" class="">Agent</text>
    <line x1="208" y1="214" x2="216" y2="214" class="solid"></line>
    <line x1="208" y1="218" x2="216" y2="218" class="solid"></line>
    <line x1="216" y1="216" x2="224" y2="216" class="broken"></line>
    <line x1="224" y1="214" x2="232" y2="214" class="solid"></line>
    <line x1="224" y1="218" x2="232" y2="218" class="solid"></line>
    <line x1="216" y1="230" x2="224" y2="230" class="solid"></line>
    <line x1="216" y1="234" x2="224" y2="234" class="solid"></line>
    <path d="M 248,288 A 16,16 0,0,0 248,304" class="nofill"></path>
    <path d="M 256,288 A 16,16 0,0,1 256,304" class="nofill"></path>
    <text x="146" y="348" class="">Thematic</text>
    <text x="290" y="348" class="">object</text>
    <line x1="248" y1="358" x2="256" y2="358" class="solid"></line>
    <line x1="248" y1="362" x2="256" y2="362" class="solid"></line>
    <line x1="264" y1="358" x2="272" y2="358" class="solid"></line>
    <line x1="264" y1="362" x2="272" y2="362" class="solid"></line>
    <line x1="160" y1="376" x2="168" y2="376" class="solid"></line>
    <line x1="240" y1="374" x2="264" y2="374" class="solid"></line>
    <line x1="240" y1="378" x2="264" y2="378" class="solid"></line>
    <text x="210" y="412" class="">Conveyance</text>
    <circle cx="204" cy="440" r="4" class="filled"></circle>
    <circle cx="292" cy="440" r="4" class="filled"></circle>
    <text x="282" y="300" class="">Instrument</text>
    <text x="362" y="364" class="">Trajectory</text>
    <line x1="360" y1="376" x2="368" y2="376" class="solid"></line>
    <line x1="376" y1="376" x2="384" y2="376" class="solid"></line>
    <line x1="392" y1="376" x2="400" y2="376" class="solid"></line>
    <line x1="408" y1="376" x2="416" y2="376" class="solid"></line>
    <line x1="424" y1="376" x2="432" y2="376" class="solid"></line>
    <line x1="440" y1="376" x2="456" y2="376" class="solid end_marked_arrow"></line>
    <text x="42" y="380" class="">source</text>
    <text x="98" y="380" class="">></text>
    <line x1="112" y1="376" x2="120" y2="376" class="solid"></line>
    <line x1="128" y1="376" x2="136" y2="376" class="solid"></line>
    <line x1="144" y1="376" x2="152" y2="376" class="solid"></line>
    <line x1="344" y1="376" x2="352" y2="376" class="solid"></line>
    <text x="466" y="380" class="">destination</text>
    <text x="18" y="444" class="">Old</text>
    <text x="18" y="460" class="">Surroundings</text>
    <text x="458" y="444" class="">New</text>
    <text x="442" y="460" class="">surroundings</text>
    <g>
        <line x1="504" y1="72" x2="528" y2="72" class="solid"></line>
        <line x1="536" y1="68" x2="528" y2="72" class="solid"></line>
        <line x1="528" y1="72" x2="536" y2="76" class="solid"></line>
    </g>
    <g>
        <line x1="336" y1="32" x2="316" y2="72" class="solid"></line>
        <line x1="316" y1="72" x2="328" y2="72" class="solid"></line>
    </g>
    <g>
        <line x1="96" y1="48" x2="108" y2="72" class="solid"></line>
        <line x1="108" y1="72" x2="144" y2="72" class="solid"></line>
    </g>
    <g>
        <path d="M 40,168 A 4,4 0,0,0 36,172" class="nofill"></path>
        <line x1="36" y1="172" x2="36" y2="180" class="solid"></line>
        <line x1="40" y1="168" x2="48" y2="168" class="solid"></line>
        <path d="M 48,168 A 4,4 0,0,1 52,172" class="nofill"></path>
        <line x1="52" y1="172" x2="52" y2="180" class="solid"></line>
        <path d="M 36,180 A 4,4 0,0,0 40,184" class="nofill"></path>
        <line x1="40" y1="184" x2="48" y2="184" class="solid"></line>
        <line x1="44" y1="184" x2="44" y2="216" class="solid"></line>
        <path d="M 52,180 A 4,4 0,0,1 48,184" class="nofill"></path>
        <line x1="44" y1="216" x2="32" y2="240" class="solid"></line>
        <line x1="44" y1="216" x2="56" y2="240" class="solid"></line>
    </g>
    <g>
        <path d="M 112,184 A 8,8 0,0,0 106,188" class="nofill"></path>
        <line x1="106" y1="188" x2="104" y2="192" class="solid"></line>
        <line x1="112" y1="184" x2="136" y2="184" class="solid"></line>
        <path d="M 136,184 A 8,8 0,0,1 142,188" class="nofill"></path>
        <line x1="142" y1="188" x2="144" y2="192" class="solid"></line>
        <path d="M 104,192 A 16,16 0,0,0 104,208" class="nofill"></path>
        <path d="M 144,192 A 16,16 0,0,1 144,208" class="nofill"></path>
        <line x1="104" y1="208" x2="106" y2="212" class="solid"></line>
        <path d="M 106,212 A 8,8 0,0,0 112,216" class="nofill"></path>
        <line x1="112" y1="216" x2="128" y2="216" class="solid"></line>
        <line x1="116" y1="216" x2="116" y2="264" class="solid"></line>
        <line x1="144" y1="208" x2="142" y2="212" class="solid"></line>
        <path d="M 142,212 A 8,8 0,0,1 136,216" class="nofill"></path>
        <line x1="116" y1="264" x2="108" y2="280" class="solid"></line>
        <line x1="116" y1="264" x2="124" y2="280" class="solid"></line>
        <line x1="108" y1="280" x2="108" y2="304" class="solid"></line>
        <line x1="124" y1="280" x2="124" y2="304" class="solid"></line>
    </g>
    <g>
        <line x1="36" y1="200" x2="52" y2="200" class="solid"></line>
        <line x1="36" y1="200" x2="24" y2="224" class="solid"></line>
        <line x1="52" y1="200" x2="64" y2="224" class="solid"></line>
    </g>
    <g>
        <line x1="92" y1="232" x2="160" y2="232" class="solid"></line>
        <line x1="92" y1="232" x2="80" y2="256" class="solid"></line>
    </g>
    <g>
        <path d="M 200,200 A 8,8 0,0,0 194,204" class="nofill"></path>
        <line x1="194" y1="204" x2="192" y2="208" class="solid"></line>
        <line x1="200" y1="200" x2="224" y2="200" class="solid"></line>
        <path d="M 224,200 A 8,8 0,0,1 230,204" class="nofill"></path>
        <line x1="230" y1="204" x2="232" y2="208" class="solid"></line>
        <path d="M 192,208 A 16,16 0,0,0 192,224" class="nofill"></path>
        <path d="M 232,208 A 16,16 0,0,1 232,224" class="nofill"></path>
        <line x1="192" y1="224" x2="194" y2="228" class="solid"></line>
        <path d="M 194,228 A 8,8 0,0,0 200,232" class="nofill"></path>
        <line x1="200" y1="232" x2="216" y2="232" class="solid"></line>
        <line x1="204" y1="232" x2="204" y2="280" class="solid"></line>
        <line x1="232" y1="224" x2="230" y2="228" class="solid"></line>
        <path d="M 230,228 A 8,8 0,0,1 224,232" class="nofill"></path>
        <line x1="204" y1="280" x2="196" y2="296" class="solid"></line>
        <line x1="204" y1="280" x2="212" y2="296" class="solid"></line>
        <line x1="196" y1="296" x2="196" y2="320" class="solid"></line>
        <line x1="212" y1="296" x2="212" y2="320" class="solid"></line>
    </g>
    <g>
        <line x1="180" y1="248" x2="236" y2="248" class="solid"></line>
        <line x1="180" y1="248" x2="168" y2="272" class="solid"></line>
        <line x1="236" y1="248" x2="248" y2="272" class="solid"></line>
        <line x1="248" y1="272" x2="252" y2="280" class="solid"></line>
        <line x1="252" y1="280" x2="252" y2="296" class="solid"></line>
        <line x1="252" y1="296" x2="232" y2="336" class="solid"></line>
        <line x1="252" y1="296" x2="272" y2="336" class="solid"></line>
        <path d="M 232,336 A 16,16 0,0,0 232,352" class="nofill"></path>
        <path d="M 240,344 A 8,8 0,0,0 234,348" class="nofill"></path>
        <line x1="234" y1="348" x2="232" y2="352" class="solid"></line>
        <line x1="240" y1="344" x2="264" y2="344" class="solid"></line>
        <path d="M 264,344 A 8,8 0,0,1 270,348" class="nofill"></path>
        <line x1="270" y1="348" x2="272" y2="352" class="solid"></line>
        <path d="M 272,336 A 16,16 0,0,1 272,352" class="nofill"></path>
        <path d="M 232,352 A 16,16 0,0,0 232,368" class="nofill"></path>
        <path d="M 272,352 A 16,16 0,0,1 272,368" class="nofill"></path>
        <line x1="232" y1="368" x2="234" y2="372" class="solid"></line>
        <path d="M 234,372 A 8,8 0,0,0 240,376" class="nofill"></path>
        <line x1="272" y1="368" x2="270" y2="372" class="solid"></line>
        <path d="M 270,372 A 8,8 0,0,1 264,376" class="nofill"></path>
    </g>
    <g>
        <line x1="172" y1="360" x2="188" y2="360" class="solid"></line>
        <line x1="172" y1="360" x2="192" y2="400" class="solid"></line>
        <line x1="188" y1="360" x2="200" y2="384" class="solid"></line>
        <line x1="200" y1="384" x2="204" y2="392" class="solid"></line>
        <line x1="204" y1="392" x2="300" y2="392" class="solid"></line>
        <line x1="192" y1="400" x2="204" y2="424" class="solid"></line>
        <line x1="316" y1="360" x2="332" y2="360" class="solid"></line>
        <line x1="316" y1="360" x2="304" y2="384" class="solid"></line>
        <line x1="332" y1="360" x2="312" y2="400" class="solid"></line>
        <line x1="304" y1="384" x2="300" y2="392" class="solid"></line>
        <line x1="312" y1="400" x2="300" y2="424" class="solid"></line>
        <line x1="204" y1="424" x2="300" y2="424" class="solid"></line>
        <line x1="204" y1="424" x2="204" y2="432" class="solid"></line>
    </g>
    <g>
        <line x1="20" y1="344" x2="92" y2="344" class="solid"></line>
        <line x1="20" y1="344" x2="20" y2="408" class="solid"></line>
        <line x1="20" y1="408" x2="92" y2="408" class="solid"></line>
    </g>
    <g>
        <line x1="468" y1="344" x2="564" y2="344" class="solid"></line>
        <line x1="564" y1="344" x2="564" y2="408" class="solid"></line>
        <line x1="468" y1="408" x2="564" y2="408" class="solid"></line>
    </g>
</svg>